<svg width="70" height="71" viewBox="0 0 70 71" fill="none" xmlns="http://www.w3.org/2000/svg">
<path d="M17.6136 17.7565C27.2006 8.01086 42.7566 7.99826 52.3589 17.7283C61.9612 27.4584 61.9736 43.2466 52.3866 52.9922L36.7543 68.8833C35.8008 69.8525 34.2537 69.8538 33.2987 68.8861L17.6413 53.0203C8.03904 43.2903 8.02664 27.5021 17.6136 17.7565Z" fill="white"/>
<ellipse cx="25.9412" cy="28.1494" rx="3.23529" ry="3.28358" fill="#C63B64"/>
<ellipse cx="44.0588" cy="28.1494" rx="3.23529" ry="3.28358" fill="#C63B64"/>
<path d="M28.5595 37.789C29.3466 38.5577 30.3771 39.1062 31.4693 39.4618C32.5731 39.8211 33.7882 39.9999 35.0002 39.9999C36.2122 39.9999 37.4272 39.8211 38.531 39.4618C39.6232 39.1062 40.6537 38.5577 41.4409 37.789" stroke="#C63B64" stroke-width="4" stroke-linecap="round"/>
</svg>
